<mxfile modified="2021-08-21T18:25:25.032Z" host="app.diagrams.net" agent="5.0 (Windows NT 10.0; Win64; x64) AppleWebKit/537.36 (KHTML, like Gecko) Chrome/92.0.4515.159 Safari/537.36" etag="hSiTqCIFdsQMKqkOOizn" version="14.9.8" type="github">
  <diagram id="WI9T0HZ2pTsCkuznbFz-" name="Page-1">
    <mxGraphModel dx="813" dy="435" grid="1" gridSize="10" guides="1" tooltips="1" connect="1" arrows="1" fold="1" page="1" pageScale="1" pageWidth="1169" pageHeight="827" math="0" shadow="0">
      <root>
        <mxCell id="0" />
        <mxCell id="1" parent="0" />
        <mxCell id="zG51wY706V_KKZoO0VVl-3" value="Tarefa 1 e 2" style="swimlane;swimlaneFillColor=#ffffff;" vertex="1" parent="1">
          <mxGeometry x="40" y="40" width="410" height="340" as="geometry" />
        </mxCell>
        <mxCell id="zG51wY706V_KKZoO0VVl-6" value="" style="rounded=0;whiteSpace=wrap;html=1;dashed=1;fillColor=#f5f5f5;strokeColor=#666666;fontColor=#333333;" vertex="1" parent="zG51wY706V_KKZoO0VVl-3">
          <mxGeometry x="20" y="40" width="370" height="280" as="geometry" />
        </mxCell>
        <mxCell id="zG51wY706V_KKZoO0VVl-8" value="" style="rounded=0;whiteSpace=wrap;html=1;dashed=1;" vertex="1" parent="zG51wY706V_KKZoO0VVl-3">
          <mxGeometry x="40" y="60" width="160" height="150" as="geometry" />
        </mxCell>
        <mxCell id="zG51wY706V_KKZoO0VVl-4" value="" style="aspect=fixed;html=1;points=[];align=center;image;fontSize=12;image=img/lib/azure2/compute/Virtual_Machine.svg;" vertex="1" parent="zG51wY706V_KKZoO0VVl-3">
          <mxGeometry x="85.5" y="70" width="69" height="64" as="geometry" />
        </mxCell>
        <mxCell id="zG51wY706V_KKZoO0VVl-7" value="az104-vnet1" style="aspect=fixed;html=1;points=[];align=center;image;fontSize=12;image=img/lib/azure2/networking/Virtual_Networks.svg;dashed=1;fontStyle=1" vertex="1" parent="zG51wY706V_KKZoO0VVl-3">
          <mxGeometry x="337" y="286" width="50.25" height="30" as="geometry" />
        </mxCell>
        <mxCell id="zG51wY706V_KKZoO0VVl-9" value="" style="rounded=0;whiteSpace=wrap;html=1;dashed=1;" vertex="1" parent="zG51wY706V_KKZoO0VVl-3">
          <mxGeometry x="210" y="60" width="160" height="150" as="geometry" />
        </mxCell>
        <mxCell id="zG51wY706V_KKZoO0VVl-5" value="" style="aspect=fixed;html=1;points=[];align=center;image;fontSize=12;image=img/lib/azure2/compute/Virtual_Machine.svg;" vertex="1" parent="zG51wY706V_KKZoO0VVl-3">
          <mxGeometry x="255.5" y="70" width="69" height="64" as="geometry" />
        </mxCell>
        <mxCell id="zG51wY706V_KKZoO0VVl-10" value="" style="aspect=fixed;html=1;points=[];align=center;image;fontSize=12;image=img/lib/azure2/networking/Network_Interfaces.svg;dashed=1;" vertex="1" parent="zG51wY706V_KKZoO0VVl-3">
          <mxGeometry x="97.33" y="160" width="45.33" height="40" as="geometry" />
        </mxCell>
        <mxCell id="zG51wY706V_KKZoO0VVl-11" value="" style="aspect=fixed;html=1;points=[];align=center;image;fontSize=12;image=img/lib/azure2/networking/Network_Interfaces.svg;dashed=1;" vertex="1" parent="zG51wY706V_KKZoO0VVl-3">
          <mxGeometry x="267.33" y="160" width="45.33" height="40" as="geometry" />
        </mxCell>
        <mxCell id="zG51wY706V_KKZoO0VVl-16" value="" style="rounded=0;whiteSpace=wrap;html=1;dashed=1;fillColor=#f5f5f5;strokeColor=#666666;fontColor=#333333;" vertex="1" parent="1">
          <mxGeometry x="530" y="70" width="160" height="150" as="geometry" />
        </mxCell>
        <mxCell id="zG51wY706V_KKZoO0VVl-15" value="" style="aspect=fixed;html=1;points=[];align=center;image;fontSize=12;image=img/lib/azure2/networking/DNS_Zones.svg;dashed=1;" vertex="1" parent="1">
          <mxGeometry x="578" y="113" width="64" height="64" as="geometry" />
        </mxCell>
        <mxCell id="zG51wY706V_KKZoO0VVl-17" value="Private DNS zone" style="text;html=1;strokeColor=none;fillColor=none;align=center;verticalAlign=middle;whiteSpace=wrap;rounded=0;dashed=1;fontStyle=1" vertex="1" parent="1">
          <mxGeometry x="550" y="80" width="120" height="20" as="geometry" />
        </mxCell>
        <mxCell id="zG51wY706V_KKZoO0VVl-18" value="raimundojr.com.br" style="text;html=1;strokeColor=none;fillColor=none;align=center;verticalAlign=middle;whiteSpace=wrap;rounded=0;dashed=1;fontStyle=1" vertex="1" parent="1">
          <mxGeometry x="550" y="180" width="120" height="20" as="geometry" />
        </mxCell>
        <mxCell id="zG51wY706V_KKZoO0VVl-19" value="" style="rounded=0;whiteSpace=wrap;html=1;dashed=1;fillColor=#f5f5f5;strokeColor=#666666;fontColor=#333333;" vertex="1" parent="1">
          <mxGeometry x="530" y="230" width="160" height="150" as="geometry" />
        </mxCell>
        <mxCell id="zG51wY706V_KKZoO0VVl-20" value="" style="aspect=fixed;html=1;points=[];align=center;image;fontSize=12;image=img/lib/azure2/networking/DNS_Zones.svg;dashed=1;" vertex="1" parent="1">
          <mxGeometry x="578" y="273" width="64" height="64" as="geometry" />
        </mxCell>
        <mxCell id="zG51wY706V_KKZoO0VVl-21" value="DNS zone" style="text;html=1;strokeColor=none;fillColor=none;align=center;verticalAlign=middle;whiteSpace=wrap;rounded=0;dashed=1;fontStyle=1" vertex="1" parent="1">
          <mxGeometry x="550" y="240" width="120" height="20" as="geometry" />
        </mxCell>
        <mxCell id="zG51wY706V_KKZoO0VVl-22" value="raimundojr.com.br" style="text;html=1;strokeColor=none;fillColor=none;align=center;verticalAlign=middle;whiteSpace=wrap;rounded=0;dashed=1;fontStyle=1" vertex="1" parent="1">
          <mxGeometry x="550" y="340" width="120" height="20" as="geometry" />
        </mxCell>
        <mxCell id="zG51wY706V_KKZoO0VVl-23" value="" style="rounded=0;whiteSpace=wrap;html=1;dashed=1;fillColor=#f5f5f5;strokeColor=#666666;fontColor=#333333;" vertex="1" parent="1">
          <mxGeometry x="60" y="400" width="370" height="80" as="geometry" />
        </mxCell>
        <mxCell id="zG51wY706V_KKZoO0VVl-24" value="" style="rounded=0;whiteSpace=wrap;html=1;dashed=1;fillColor=#f5f5f5;strokeColor=#666666;fontColor=#333333;" vertex="1" parent="1">
          <mxGeometry x="60" y="500" width="370" height="80" as="geometry" />
        </mxCell>
        <mxCell id="zG51wY706V_KKZoO0VVl-12" value="az104-pip0" style="aspect=fixed;html=1;points=[];align=center;image;fontSize=12;image=img/lib/azure2/networking/Public_IP_Addresses.svg;dashed=1;" vertex="1" parent="1">
          <mxGeometry x="125.5" y="413" width="45" height="36" as="geometry" />
        </mxCell>
        <mxCell id="zG51wY706V_KKZoO0VVl-13" value="az104-pip1" style="aspect=fixed;html=1;points=[];align=center;image;fontSize=12;image=img/lib/azure2/networking/Public_IP_Addresses.svg;dashed=1;" vertex="1" parent="1">
          <mxGeometry x="295.5" y="413" width="45" height="36" as="geometry" />
        </mxCell>
        <mxCell id="zG51wY706V_KKZoO0VVl-14" value="az104-nsg01" style="aspect=fixed;html=1;points=[];align=center;image;fontSize=12;image=img/lib/azure2/networking/Network_Security_Groups.svg;dashed=1;" vertex="1" parent="1">
          <mxGeometry x="227.71" y="519" width="34.59" height="42" as="geometry" />
        </mxCell>
      </root>
    </mxGraphModel>
  </diagram>
</mxfile>
